<svg width="134" height="22" viewBox="0 0 134 22" fill="none" xmlns="http://www.w3.org/2000/svg">
<path d="M17.3402 0.90909V22H14.4155L3.69496 6.53196H3.49929V22H0.317117V0.90909H3.26243L13.9933 16.3977H14.1889V0.90909H17.3402ZM37.6343 0.90909V22H34.4522V0.90909H37.6343ZM54.7386 22V0.90909H57.9207V10.9808H58.1782L67.0244 0.90909H71.0305L62.5241 10.4041L71.0614 22H67.2304L60.4129 12.5771L57.9207 15.44V22H54.7386ZM86.4664 22V0.90909H99.6894V3.64844H89.6486V10.0746H98.9994V12.8036H89.6486V19.2607H99.813V22H86.4664ZM114.783 0.90909H118.398L123.907 10.4968H124.134L129.643 0.90909H133.258L125.606 13.7202V22H122.435V13.7202L114.783 0.90909Z" fill="#F0F5FF"/>
</svg>
